<svg width="229" height="223" viewBox="0 0 229 223" fill="none" xmlns="http://www.w3.org/2000/svg">
<ellipse cx="114.5" cy="111.5" rx="114.5" ry="111.5" fill="#12236B"/>
<path d="M89.7865 177.812C88.4132 177.325 88.342 177.256 87.3147 178.309C85.1582 180.516 83.083 182.803 81.0283 185C79.6347 184.075 80.0721 183.211 80.0619 182.505C80.0212 174.065 80.1026 165.624 80.0009 157.184C79.9704 154.808 80.7333 153.039 82.4625 151.388C95.4523 138.962 108.015 126.118 121.147 113.84C125.084 110.152 128.644 106.086 132.723 102.517C135.073 100.459 134.635 98.8286 132.072 96.3432C125.623 90.1001 119.306 83.7177 112.979 77.4447C122.856 76.1822 132.713 74.8501 142.58 73.667C153.373 72.3747 164.186 71.2314 174.988 69.9987C177.084 69.7601 179.189 69.5116 181.254 69.0841C182.74 68.7759 183.187 69.3227 182.933 70.5952C181.58 77.2857 181.498 84.1353 180.451 90.8258C178.752 101.702 177.297 112.587 176.27 123.553C175.863 127.957 174.439 132.241 174.449 137.292C170.818 134.916 168.305 131.893 165.508 129.219C161.368 125.263 157.441 121.077 153.301 117.121C151.999 115.878 150.514 116.445 149.283 117.657C144.177 122.718 139.06 127.778 133.913 132.798C125.847 140.682 117.729 148.535 109.683 156.439C109.012 157.105 108.168 157.254 107.445 157.711C104.343 155.325 99.7247 156.319 98.1785 159.57C95.2896 165.614 93.1636 171.987 89.7865 177.812Z" fill="#0044EF"/>
<path d="M105.714 151.206C105.567 151.675 105.207 152.194 105.305 152.613C105.73 154.707 108.821 156.382 107.791 158.108C105.878 161.308 102.934 163.871 100.35 166.635C100.006 167.003 99.1232 167.07 98.5672 166.936C95.9178 166.316 89.278 157.22 89 153.97C91.6821 148.693 94.3478 143.399 94.0207 137.168C94.266 137.084 94.5113 137.034 94.7567 137C96.9972 138.039 98.0929 140.032 98.7471 142.294C99.3522 144.371 100.399 145.828 102.607 146.13C103.441 147.939 103.735 150.1 105.698 151.206H105.714Z" fill="#0044EF"/>
<path d="M102.66 94.8007C111.98 94.8407 121.29 94.8807 130.61 94.9007C133.417 94.9073 134.903 96.2673 135.07 98.9807C135.04 104.171 134.88 109.361 135.05 114.541C135.13 116.971 134.53 117.771 131.96 117.731C121.5 117.581 111.03 117.701 100.56 117.631C98.74 117.621 97.91 117.931 97.92 120.041C98.01 133.411 97.99 146.781 97.93 160.151C97.93 161.901 98.31 162.821 100.23 162.561C101.01 162.451 101.82 162.501 102.62 162.471L102.64 162.591C103.5 163.621 104.68 163.191 105.71 163.191C118.63 163.221 131.54 163.291 144.46 163.141C146.96 163.111 148.27 163.761 148.63 166.201C148.75 166.361 148.83 166.541 148.85 166.741C148.82 172.321 148.81 177.901 148.76 183.481C148.75 184.531 149.13 185.711 148.04 186.521C146.95 186.481 145.85 186.411 144.76 186.411C124.31 186.401 103.86 186.391 83.41 186.381C79.8433 186.094 78.06 184.111 78.06 180.431C78.06 133.551 78.09 86.6807 78 39.8007C78 36.9407 78.45 35.9707 81.63 36.0007C102.8 36.1707 123.97 36.0907 145.14 36.0907C147.933 36.0907 149.417 37.464 149.59 40.2107C149.57 45.6907 149.4 51.1807 149.59 56.6607C149.69 59.3207 148.9 59.9907 146.27 59.9707C131.13 59.8407 115.99 59.9407 100.85 59.8707C98.76 59.8607 97.86 60.2107 97.9 62.6107C98.04 72.5807 98 82.5507 97.92 92.5207C97.91 94.3207 98.4 95.1307 100.26 94.8907C101.05 94.7907 101.85 94.8307 102.65 94.8007H102.66Z" fill="#FE032F"/>
<path d="M102.63 162.481C101.83 162.511 101.03 162.461 100.24 162.571C98.32 162.831 97.93 161.911 97.94 160.161C98 146.791 98.02 133.421 97.93 120.051C97.92 117.941 98.75 117.631 100.57 117.641C111.04 117.711 121.5 117.581 131.97 117.741C134.53 117.781 135.13 116.981 135.06 114.551C134.9 109.371 135.06 104.181 135.08 98.9907C136.44 99.4707 138.37 97.8107 139.24 100.101C139.24 106.801 139.24 113.501 139.24 120.191C138.48 121.211 137.39 120.681 136.48 120.691C126.2 120.731 115.92 120.821 105.64 120.651C103.04 120.611 102.59 121.421 102.61 123.821C102.72 136.711 102.64 149.591 102.63 162.481Z" fill="#132350"/>
<path d="M102.66 94.8007C101.86 94.8207 101.06 94.7807 100.27 94.8907C98.4 95.1307 97.91 94.3207 97.93 92.5207C98 82.5507 98.04 72.5807 97.91 62.6107C97.88 60.2207 98.78 59.8607 100.86 59.8707C116 59.9507 131.14 59.8407 146.28 59.9707C148.91 59.9907 149.69 59.3307 149.6 56.6607C149.4 51.1907 149.57 45.7007 149.6 40.2107C149.76 40.1507 149.89 40.1807 150 40.3107C152.75 40.6707 153.14 42.3807 153.03 44.8507C152.82 49.4307 152.8 54.0307 153.03 58.6107C153.17 61.3407 152.21 61.9307 149.64 61.9107C134.79 61.7907 119.95 61.8907 105.1 61.8107C102.88 61.8007 101.93 62.2307 101.97 64.7507C102.12 73.7207 102.02 82.7007 102.04 91.6807C102.04 92.5507 101.8 93.5007 102.55 94.2307C102.64 94.4107 102.68 94.5907 102.66 94.7907V94.8007Z" fill="#13224F"/>
<path d="M154.03 177.621C153.41 179.711 152.85 181.821 152.16 183.891C151.8 184.971 151.57 185.831 153.03 186.131C152.99 186.501 152.96 186.861 152.92 187.231C152.19 188.151 151.27 188.451 150.07 188.451C128.84 188.411 107.6 188.431 86.37 188.421C85.42 188.421 84.27 188.711 84.05 187.231C104.54 187.231 125.03 187.241 145.52 187.181C146.32 187.181 147.56 188.111 148.05 186.551C149.14 185.741 148.76 184.561 148.77 183.511C148.83 177.931 148.84 172.351 148.86 166.771C149.04 166.741 149.21 166.771 149.36 166.881C149.36 173.051 149.36 179.221 149.36 185.701C149.7 185.321 149.82 185.261 149.82 185.191C149.87 180.001 149.91 174.821 149.97 169.631C149.98 168.791 149.71 167.631 151.04 167.551C152.63 167.461 152.24 168.771 152.35 169.701C152.64 172.131 151.73 174.661 152.92 177.031C153.12 177.551 153.57 177.591 154.03 177.641V177.621Z" fill="#122250"/>
<path d="M102.54 94.2407C101.78 93.5107 102.03 92.5607 102.03 91.6907C102.02 82.7107 102.11 73.7407 101.96 64.7607C101.92 62.2407 102.86 61.8107 105.09 61.8207C119.94 61.9007 134.79 61.8007 149.63 61.9207C152.2 61.9407 153.15 61.3507 153.02 58.6207C152.79 54.0407 152.81 49.4407 153.02 44.8607C153.13 42.3907 152.74 40.6807 149.99 40.3207C152.797 40.0874 154.2 41.3273 154.2 44.0407C154.2 49.3207 154.09 54.6107 154.25 59.8907C154.33 62.3507 153.62 63.1407 151.08 63.1207C135.94 63.0107 120.8 63.1207 105.66 63.0007C103.14 62.9807 102.57 63.6707 102.6 66.1207C102.72 75.4907 102.59 84.8607 102.55 94.2207L102.54 94.2407Z" fill="#10224F"/>
<path d="M148.64 166.211C148.28 163.771 146.97 163.121 144.47 163.151C131.56 163.311 118.64 163.231 105.72 163.201C104.68 163.201 103.51 163.621 102.65 162.601C116.89 162.601 131.14 162.701 145.38 162.531C148.42 162.491 149.28 163.451 148.64 166.221V166.211Z" fill="#F0022B"/>
</svg>
